<svg id="visual" viewBox="0 0 960 540" width="960" height="540" xmlns="http://www.w3.org/2000/svg" xmlns:xlink="http://www.w3.org/1999/xlink" version="1.1"><path d="M0 325L14.5 326.5C29 328 58 331 87.2 335C116.3 339 145.7 344 174.8 347.5C204 351 233 353 262 350.5C291 348 320 341 349 338.8C378 336.7 407 339.3 436.2 346.8C465.3 354.3 494.7 366.7 523.8 370.3C553 374 582 369 611 369C640 369 669 374 698 368.7C727 363.3 756 347.7 785.2 342.7C814.3 337.7 843.7 343.3 872.8 348.8C902 354.3 931 359.7 945.5 362.3L960 365L960 541L945.5 541C931 541 902 541 872.8 541C843.7 541 814.3 541 785.2 541C756 541 727 541 698 541C669 541 640 541 611 541C582 541 553 541 523.8 541C494.7 541 465.3 541 436.2 541C407 541 378 541 349 541C320 541 291 541 262 541C233 541 204 541 174.8 541C145.7 541 116.3 541 87.2 541C58 541 29 541 14.5 541L0 541Z" fill="#79e8d7"></path><path d="M0 372L14.5 378.3C29 384.7 58 397.3 87.2 403.2C116.3 409 145.7 408 174.8 401.2C204 394.3 233 381.7 262 382.8C291 384 320 399 349 398C378 397 407 380 436.2 376.5C465.3 373 494.7 383 523.8 385C553 387 582 381 611 384.5C640 388 669 401 698 401.2C727 401.3 756 388.7 785.2 381.7C814.3 374.7 843.7 373.3 872.8 375.2C902 377 931 382 945.5 384.5L960 387L960 541L945.5 541C931 541 902 541 872.8 541C843.7 541 814.3 541 785.2 541C756 541 727 541 698 541C669 541 640 541 611 541C582 541 553 541 523.8 541C494.7 541 465.3 541 436.2 541C407 541 378 541 349 541C320 541 291 541 262 541C233 541 204 541 174.8 541C145.7 541 116.3 541 87.2 541C58 541 29 541 14.5 541L0 541Z" fill="#4ed7db"></path><path d="M0 402L14.5 408.7C29 415.3 58 428.7 87.2 433.3C116.3 438 145.7 434 174.8 427.8C204 421.7 233 413.3 262 409.3C291 405.3 320 405.7 349 410C378 414.3 407 422.7 436.2 423.8C465.3 425 494.7 419 523.8 414C553 409 582 405 611 407.8C640 410.7 669 420.3 698 423.2C727 426 756 422 785.2 418.2C814.3 414.3 843.7 410.7 872.8 410.7C902 410.7 931 414.3 945.5 416.2L960 418L960 541L945.5 541C931 541 902 541 872.8 541C843.7 541 814.3 541 785.2 541C756 541 727 541 698 541C669 541 640 541 611 541C582 541 553 541 523.8 541C494.7 541 465.3 541 436.2 541C407 541 378 541 349 541C320 541 291 541 262 541C233 541 204 541 174.8 541C145.7 541 116.3 541 87.2 541C58 541 29 541 14.5 541L0 541Z" fill="#1ac5de"></path><path d="M0 455L14.5 455.3C29 455.7 58 456.3 87.2 460.2C116.3 464 145.7 471 174.8 470.3C204 469.7 233 461.3 262 455.8C291 450.3 320 447.7 349 449C378 450.3 407 455.7 436.2 455.3C465.3 455 494.7 449 523.8 449.8C553 450.7 582 458.3 611 457.5C640 456.7 669 447.3 698 445C727 442.7 756 447.3 785.2 453.2C814.3 459 843.7 466 872.8 468.2C902 470.3 931 467.7 945.5 466.3L960 465L960 541L945.5 541C931 541 902 541 872.8 541C843.7 541 814.3 541 785.2 541C756 541 727 541 698 541C669 541 640 541 611 541C582 541 553 541 523.8 541C494.7 541 465.3 541 436.2 541C407 541 378 541 349 541C320 541 291 541 262 541C233 541 204 541 174.8 541C145.7 541 116.3 541 87.2 541C58 541 29 541 14.5 541L0 541Z" fill="#00b1de"></path><path d="M0 504L14.5 501.8C29 499.7 58 495.3 87.2 494.8C116.3 494.3 145.7 497.7 174.8 496.3C204 495 233 489 262 489.8C291 490.7 320 498.3 349 501.7C378 505 407 504 436.2 502C465.3 500 494.7 497 523.8 493.3C553 489.7 582 485.3 611 483C640 480.7 669 480.3 698 481.2C727 482 756 484 785.2 487.2C814.3 490.3 843.7 494.7 872.8 498.5C902 502.3 931 505.7 945.5 507.3L960 509L960 541L945.5 541C931 541 902 541 872.8 541C843.7 541 814.3 541 785.2 541C756 541 727 541 698 541C669 541 640 541 611 541C582 541 553 541 523.8 541C494.7 541 465.3 541 436.2 541C407 541 378 541 349 541C320 541 291 541 262 541C233 541 204 541 174.8 541C145.7 541 116.3 541 87.2 541C58 541 29 541 14.5 541L0 541Z" fill="#129cd9"></path></svg>