<svg id="visual" viewBox="0 0 900 900" width="900" height="900" xmlns="http://www.w3.org/2000/svg" xmlns:xlink="http://www.w3.org/1999/xlink" version="1.1"><g transform="translate(474.9351356869033 445.17181440796674)"><path d="M188.2 -302.7C244.2 -256.9 289.9 -205.1 303.2 -147C316.6 -88.8 297.5 -24.4 298.2 50.3C299 124.9 319.5 209.8 291.6 266.1C263.7 322.5 187.4 350.3 110.2 370.9C33.1 391.5 -44.9 404.9 -105 377.9C-165 350.9 -207.2 283.5 -243 221.9C-278.8 160.2 -308.2 104.4 -331.2 38.9C-354.2 -26.6 -370.8 -101.8 -344.2 -156C-317.6 -210.2 -247.7 -243.5 -183.2 -285.3C-118.6 -327.2 -59.3 -377.6 3.4 -382.9C66.1 -388.2 132.3 -348.5 188.2 -302.7" fill="#0076ba"></path></g></svg>