<svg id="visual" viewBox="0 0 900 200" width="900" height="200" xmlns="http://www.w3.org/2000/svg" xmlns:xlink="http://www.w3.org/1999/xlink" version="1.1"><rect x="0" y="0" width="900" height="200" fill="#156ee4"></rect><path d="M0 110L129 68L257 119L386 73L514 84L643 80L771 91L900 68L900 201L771 201L643 201L514 201L386 201L257 201L129 201L0 201Z" fill="#0059dd"></path><path d="M0 117L129 117L257 102L386 127L514 104L643 134L771 113L900 93L900 201L771 201L643 201L514 201L386 201L257 201L129 201L0 201Z" fill="#2669e6"></path><path d="M0 125L129 132L257 131L386 141L514 151L643 130L771 137L900 122L900 201L771 201L643 201L514 201L386 201L257 201L129 201L0 201Z" fill="#3c79ef"></path><path d="M0 147L129 153L257 168L386 141L514 141L643 168L771 136L900 155L900 201L771 201L643 201L514 201L386 201L257 201L129 201L0 201Z" fill="#4f88f7"></path><path d="M0 160L129 180L257 178L386 168L514 164L643 185L771 185L900 170L900 201L771 201L643 201L514 201L386 201L257 201L129 201L0 201Z" fill="#6198ff"></path></svg>