<svg id="visual" viewBox="0 0 900 300" width="900" height="300" xmlns="http://www.w3.org/2000/svg" xmlns:xlink="http://www.w3.org/1999/xlink" version="1.1"><path d="M0 58L13.7 61.5C27.3 65 54.7 72 82 75C109.3 78 136.7 77 163.8 73.5C191 70 218 64 245.2 59C272.3 54 299.7 50 327 55C354.3 60 381.7 74 409 78C436.3 82 463.7 76 491 78.5C518.3 81 545.7 92 573 94.5C600.3 97 627.7 91 654.8 96C682 101 709 117 736.2 115.5C763.3 114 790.7 95 818 88C845.3 81 872.7 86 886.3 88.5L900 91L900 0L886.3 0C872.7 0 845.3 0 818 0C790.7 0 763.3 0 736.2 0C709 0 682 0 654.8 0C627.7 0 600.3 0 573 0C545.7 0 518.3 0 491 0C463.7 0 436.3 0 409 0C381.7 0 354.3 0 327 0C299.7 0 272.3 0 245.2 0C218 0 191 0 163.8 0C136.7 0 109.3 0 82 0C54.7 0 27.3 0 13.7 0L0 0Z" fill="#6198ff"></path><path d="M0 85L13.7 94.5C27.3 104 54.7 123 82 128C109.3 133 136.7 124 163.8 115C191 106 218 97 245.2 94C272.3 91 299.7 94 327 106C354.3 118 381.7 139 409 139C436.3 139 463.7 118 491 120C518.3 122 545.7 147 573 156C600.3 165 627.7 158 654.8 156C682 154 709 157 736.2 151.5C763.3 146 790.7 132 818 130.5C845.3 129 872.7 140 886.3 145.5L900 151L900 89L886.3 86.5C872.7 84 845.3 79 818 86C790.7 93 763.3 112 736.2 113.5C709 115 682 99 654.8 94C627.7 89 600.3 95 573 92.5C545.7 90 518.3 79 491 76.5C463.7 74 436.3 80 409 76C381.7 72 354.3 58 327 53C299.7 48 272.3 52 245.2 57C218 62 191 68 163.8 71.5C136.7 75 109.3 76 82 73C54.7 70 27.3 63 13.7 59.5L0 56Z" fill="#3c80ff"></path><path d="M0 142L13.7 151C27.3 160 54.7 178 82 183.5C109.3 189 136.7 182 163.8 174.5C191 167 218 159 245.2 154.5C272.3 150 299.7 149 327 160.5C354.3 172 381.7 196 409 197C436.3 198 463.7 176 491 174.5C518.3 173 545.7 192 573 196.5C600.3 201 627.7 191 654.8 186.5C682 182 709 183 736.2 177.5C763.3 172 790.7 160 818 160.5C845.3 161 872.7 174 886.3 180.5L900 187L900 149L886.3 143.5C872.7 138 845.3 127 818 128.5C790.7 130 763.3 144 736.2 149.5C709 155 682 152 654.8 154C627.7 156 600.3 163 573 154C545.7 145 518.3 120 491 118C463.7 116 436.3 137 409 137C381.7 137 354.3 116 327 104C299.7 92 272.3 89 245.2 92C218 95 191 104 163.8 113C136.7 122 109.3 131 82 126C54.7 121 27.3 102 13.7 92.5L0 83Z" fill="#0066ff"></path><path d="M0 268L13.7 268C27.3 268 54.7 268 82 265.5C109.3 263 136.7 258 163.8 259.5C191 261 218 269 245.2 272C272.3 275 299.7 273 327 270.5C354.3 268 381.7 265 409 265C436.3 265 463.7 268 491 271C518.3 274 545.7 277 573 275.5C600.3 274 627.7 268 654.8 264C682 260 709 258 736.2 256.5C763.3 255 790.7 254 818 253C845.3 252 872.7 251 886.3 250.5L900 250L900 185L886.3 178.5C872.7 172 845.3 159 818 158.5C790.7 158 763.3 170 736.2 175.5C709 181 682 180 654.8 184.5C627.7 189 600.3 199 573 194.5C545.7 190 518.3 171 491 172.5C463.7 174 436.3 196 409 195C381.7 194 354.3 170 327 158.5C299.7 147 272.3 148 245.2 152.5C218 157 191 165 163.8 172.5C136.7 180 109.3 187 82 181.5C54.7 176 27.3 158 13.7 149L0 140Z" fill="#0059dd"></path><path d="M0 301L13.7 301C27.3 301 54.7 301 82 301C109.3 301 136.7 301 163.8 301C191 301 218 301 245.2 301C272.3 301 299.7 301 327 301C354.3 301 381.7 301 409 301C436.3 301 463.7 301 491 301C518.3 301 545.7 301 573 301C600.3 301 627.7 301 654.8 301C682 301 709 301 736.2 301C763.3 301 790.7 301 818 301C845.3 301 872.7 301 886.3 301L900 301L900 248L886.3 248.5C872.7 249 845.3 250 818 251C790.7 252 763.3 253 736.2 254.5C709 256 682 258 654.8 262C627.7 266 600.3 272 573 273.5C545.7 275 518.3 272 491 269C463.7 266 436.3 263 409 263C381.7 263 354.3 266 327 268.5C299.7 271 272.3 273 245.2 270C218 267 191 259 163.8 257.5C136.7 256 109.3 261 82 263.5C54.7 266 27.3 266 13.7 266L0 266Z" fill="#004cbb"></path></svg>