<svg id="visual" viewBox="0 0 900 300" width="900" height="300" xmlns="http://www.w3.org/2000/svg" xmlns:xlink="http://www.w3.org/1999/xlink" version="1.1"><rect x="0" y="0" width="900" height="300" fill="#0059dd"></rect><path d="M0 140L18.8 130.2C37.7 120.3 75.3 100.7 112.8 96.2C150.3 91.7 187.7 102.3 225.2 109.2C262.7 116 300.3 119 337.8 108.5C375.3 98 412.7 74 450.2 70.3C487.7 66.7 525.3 83.3 562.8 99.8C600.3 116.3 637.7 132.7 675.2 134.8C712.7 137 750.3 125 787.8 111.7C825.3 98.3 862.7 83.7 881.3 76.3L900 69L900 301L881.3 301C862.7 301 825.3 301 787.8 301C750.3 301 712.7 301 675.2 301C637.7 301 600.3 301 562.8 301C525.3 301 487.7 301 450.2 301C412.7 301 375.3 301 337.8 301C300.3 301 262.7 301 225.2 301C187.7 301 150.3 301 112.8 301C75.3 301 37.7 301 18.8 301L0 301Z" fill="#004cbb"></path><path d="M0 100L18.8 105.7C37.7 111.3 75.3 122.7 112.8 124.5C150.3 126.3 187.7 118.7 225.2 124.3C262.7 130 300.3 149 337.8 166.3C375.3 183.7 412.7 199.3 450.2 204C487.7 208.7 525.3 202.3 562.8 204.3C600.3 206.3 637.7 216.7 675.2 200.7C712.7 184.7 750.3 142.3 787.8 138.2C825.3 134 862.7 168 881.3 185L900 202L900 301L881.3 301C862.7 301 825.3 301 787.8 301C750.3 301 712.7 301 675.2 301C637.7 301 600.3 301 562.8 301C525.3 301 487.7 301 450.2 301C412.7 301 375.3 301 337.8 301C300.3 301 262.7 301 225.2 301C187.7 301 150.3 301 112.8 301C75.3 301 37.7 301 18.8 301L0 301Z" fill="#0372d6"></path><path d="M0 191L18.8 198.5C37.7 206 75.3 221 112.8 213.3C150.3 205.7 187.7 175.3 225.2 161C262.7 146.7 300.3 148.3 337.8 154.3C375.3 160.3 412.7 170.7 450.2 188.7C487.7 206.7 525.3 232.3 562.8 226.2C600.3 220 637.7 182 675.2 167C712.7 152 750.3 160 787.8 174.5C825.3 189 862.7 210 881.3 220.5L900 231L900 301L881.3 301C862.7 301 825.3 301 787.8 301C750.3 301 712.7 301 675.2 301C637.7 301 600.3 301 562.8 301C525.3 301 487.7 301 450.2 301C412.7 301 375.3 301 337.8 301C300.3 301 262.7 301 225.2 301C187.7 301 150.3 301 112.8 301C75.3 301 37.7 301 18.8 301L0 301Z" fill="#3497ec"></path><path d="M0 259L18.8 263.5C37.7 268 75.3 277 112.8 281C150.3 285 187.7 284 225.2 272.3C262.7 260.7 300.3 238.3 337.8 224.3C375.3 210.3 412.7 204.7 450.2 214.5C487.7 224.3 525.3 249.7 562.8 255.7C600.3 261.7 637.7 248.3 675.2 248.7C712.7 249 750.3 263 787.8 258.3C825.3 253.7 862.7 230.3 881.3 218.7L900 207L900 301L881.3 301C862.7 301 825.3 301 787.8 301C750.3 301 712.7 301 675.2 301C637.7 301 600.3 301 562.8 301C525.3 301 487.7 301 450.2 301C412.7 301 375.3 301 337.8 301C300.3 301 262.7 301 225.2 301C187.7 301 150.3 301 112.8 301C75.3 301 37.7 301 18.8 301L0 301Z" fill="#61bcff"></path></svg>